<svg viewBox="0 0 24 24" xml:space="preserve" xmlns="http://www.w3.org/2000/svg"><path d="M21 23H3a2 2 0 0 1-2-2V3a2 2 0 0 1 2-2h18a2 2 0 0 1 2 2v18a2 2 0 0 1-2 2z" fill="#3C5A9A"/><path d="M21 1H3a2 2 0 0 0-2 2v.25a2 2 0 0 1 2-2h18a2 2 0 0 1 2 2V3a2 2 0 0 0-2-2z" fill="#FFF" opacity=".2"/><path d="M11 23v-8H9.02v-3H11v-2a4 4 0 0 1 4-4h3v3h-3a1 1 0 0 0-1 1v2h4l-.5 3H14v8h-3z" fill="#FFF"/><path d="M21 22.75H3a2 2 0 0 1-2-2V21a2 2 0 0 0 2 2h18a2 2 0 0 0 2-2v-.25a2 2 0 0 1-2 2z" fill="#010101" opacity=".1"/><linearGradient gradientUnits="userSpaceOnUse" id="a" x1="12.543" x2="23.164" y1="11.043" y2="21.664"><stop offset="0" style="stop-color:#010101;stop-opacity:.1"/><stop offset="1" style="stop-color:#010101;stop-opacity:0"/></linearGradient><path d="M18 6v3h-3a1 1 0 0 0-1 1v2h4l-.5 3H14v8h7a2 2 0 0 0 2-2V11l-5-5z" fill="url(#a)"/><linearGradient gradientUnits="userSpaceOnUse" id="b" x1="-.653" x2="24.653" y1="6.1" y2="17.9"><stop offset="0" style="stop-color:#fff;stop-opacity:.2"/><stop offset="1" style="stop-color:#fff;stop-opacity:0"/></linearGradient><path d="M21 23H3a2 2 0 0 1-2-2V3a2 2 0 0 1 2-2h18a2 2 0 0 1 2 2v18a2 2 0 0 1-2 2z" fill="url(#b)"/></svg>