<svg id="Layer_1" style="enable-background:new 0 0 512 512" version="1.1" viewBox="0 0 512 512" xml:space="preserve" xmlns="http://www.w3.org/2000/svg"><style>.st0{fill:#2a7ab9}</style><path class="st0" d="M273 233.8v-.7c-.1.2-.3.5-.5.7h.5z"/><path class="st0" d="M447.7 29.6H64.2C45.9 29.6 31 44.1 31 62v388c0 17.9 14.9 32.4 33.2 32.4h383.5c18.4 0 33.3-14.5 33.3-32.4V62c0-17.9-14.9-32.4-33.3-32.4zM167.4 408.7h-68V204.2h68v204.5zm-34-232.5h-.4c-22.8 0-37.5-15.7-37.5-35.3 0-20.1 15.2-35.3 38.4-35.3 23.3 0 37.6 15.3 38 35.3 0 19.6-14.8 35.3-38.5 35.3zm279.1 232.5h-68V299.2c0-27.5-9.8-46.2-34.4-46.2-18.8 0-30 12.6-34.9 24.9-1.8 4.4-2.2 10.5-2.2 16.6v114.2h-68s.9-185.3 0-204.5h68v28.9c9-13.9 25.2-33.8 61.3-33.8 44.7 0 78.2 29.2 78.2 92.1v117.3z"/></svg>