<svg data-name="Layer 1" viewBox="0 0 500 500" xmlns="http://www.w3.org/2000/svg"><circle cx="250" cy="250" r="250" fill="#294b57" class="fill-4189a3"></circle><circle cx="250" cy="250" r="203.65" fill="#4d7e8a" class="fill-4da7bc"></circle><path d="M308.1 376.73a96.79 96.79 0 0 1-19.92-2.19c-37.14-7.82-76.3-29.49-104.77-58S133.27 249 125.46 211.83c-6.27-29.77.92-54.49 22-75.55l4.38-4.38c6.87-6.87 15.14-11.77 23.29-13.81 10.27-2.56 19.77-.42 26.08 5.9l21.47 21.47c9.65 9.66 7.33 26.54-5.4 39.28l-6 6c-3.24 3.24-5.38 8.28-5.47 9.95 1.34 16.41 13.78 37.29 35 58.52s42.1 33.67 58.77 35c1.41-.1 6.45-2.24 9.7-5.48l6-6A39.12 39.12 0 0 1 333 272.29c8.39-2.11 16.24-.25 21.55 5.07L376 298.82c11.82 11.82 8.42 33-7.91 49.37l-4.37 4.38c-16.17 16.17-34.5 24.16-55.62 24.16ZM183.37 142c-2.37 0-8.11 1.8-13.89 7.57l-4.37 4.43c-15 15-19.71 31.28-15.19 52.72 6.76 32.1 26.36 67.44 51.16 92.24s60.15 44.4 92.25 51.17c21.44 4.52 37.69-.17 52.72-15.2l4.37-4.38c6.24-6.24 7.84-12.43 7.54-14.39l-19.43-19.43a15.56 15.56 0 0 0-5.58 3.74l-6 6c-6.95 6.87-19.25 13.53-29.37 12.65-22.9-1.86-48.64-16.47-74.43-42.26-25.79-25.79-40.41-51.53-42.27-74.43-.82-10.13 5.78-22.46 12.72-29.4l6-6a15.45 15.45 0 0 0 3.73-5.58L183.88 142a4.11 4.11 0 0 0-.51 0Z" fill="#ffffff" class="fill-ffffff"></path></svg>