<?xml version="1.0" ?><svg height="512" id="svg8" version="1.1" viewBox="0 0 135.46666 135.46667" width="512" xmlns="http://www.w3.org/2000/svg" xmlns:cc="http://creativecommons.org/ns#" xmlns:dc="http://purl.org/dc/elements/1.1/" xmlns:inkscape="http://www.inkscape.org/namespaces/inkscape" xmlns:rdf="http://www.w3.org/1999/02/22-rdf-syntax-ns#" xmlns:sodipodi="http://sodipodi.sourceforge.net/DTD/sodipodi-0.dtd" xmlns:svg="http://www.w3.org/2000/svg"><defs id="defs2"/><g id="layer1"><circle cx="67.73333" cy="67.73333" id="path848" r="67.20417" style="fill:#2298d5;fill-opacity:1;stroke:none;stroke-width:1.05833;stroke-linecap:round;stroke-linejoin:round"/><g id="g921" style="stroke-width:0.847246" transform="matrix(1.1802949,0,0,1.1802949,-11.952377,-12.258353)"><path d="m 93.341608,97.763644 c 0,0 15.044222,-60.146953 11.779902,-61.793967 -3.26432,-1.647014 -74.353278,27.308787 -74.353278,27.308787 -7.448956,3.516073 18.902408,9.99347 18.902408,9.99347 l 43.637981,-27.174956 -33.284217,31.9372 c 0,0 30.790404,29.166322 33.317204,19.729466 z" id="path898" style="fill:#ffffff;stroke:none;stroke-width:0.224167px;stroke-linecap:butt;stroke-linejoin:miter;stroke-opacity:1"/><path d="m 60.024391,78.034011 c 0,0 -3.056228,17.441261 -1.398988,19.218843 L 69.750317,86.638408 c -5.470829,-4.575766 -9.725926,-8.604397 -9.725926,-8.604397 z" id="path900" style="fill:#b3b3b3;stroke:none;stroke-width:0.224167px;stroke-linecap:butt;stroke-linejoin:miter;stroke-opacity:1"/><path d="M 93.308681,46.096639 49.671207,73.272204 c 0,0 4.955559,21.531555 8.954196,23.98065 -1.65724,-1.777582 1.398988,-19.218843 1.398988,-19.218843 z" id="path902" style="fill:#e6e6e6;stroke:none;stroke-width:0.224167px;stroke-linecap:butt;stroke-linejoin:miter;stroke-opacity:1"/></g></g></svg>