<svg viewBox="0 0 64 64" xmlns="http://www.w3.org/2000/svg"><g data-name="32-vk"><rect height="64" rx="11.2" ry="11.2" width="64" style="fill:#4489c8"/><path d="M9.62 19.77h7.68a.79.79 0 0 1 .74.51c.85 2.19 4.38 10.76 7.61 11.46 2.4 0 1.55-11.4-1.5-11.4-.8 0 1.42-1.42 1.57-1.48a16.38 16.38 0 0 1 8.66 0c1.53.64 1.79 2.43 1.83 3.95s-1.7 8 .59 8.7c3 .92 6.86-8.49 7.76-10.8a.79.79 0 0 1 .74-.5h8.55a.8.8 0 0 1 .74 1.11 74.74 74.74 0 0 1-6.31 11.52 1.59 1.59 0 0 0 .16 2C51 37.58 58 45.34 54 45.34h-8.63a1.57 1.57 0 0 1-1.18-.53c-1.34-1.48-5.24-5.6-7-5.27-1.46.27-1.6 2.75-1.53 4.37a1.6 1.6 0 0 1-1.48 1.68c-1.53.09-3.62.13-3.81.12-6.1-.39-9.71-4.46-13.16-9a56.33 56.33 0 0 1-8.35-15.88.81.81 0 0 1 .76-1.06Z" style="fill:#fff"/></g></svg>