<svg style="fill-rule:evenodd;clip-rule:evenodd;stroke-linejoin:round;stroke-miterlimit:2" viewBox="0 0 512 512" xml:space="preserve" xmlns="http://www.w3.org/2000/svg"><path d="M501.299 132.766c-5.888-22.03-23.234-39.377-45.264-45.264-39.932-10.701-200.037-10.701-200.037-10.701s-160.105 0-200.038 10.701c-22.025 5.887-39.376 23.234-45.264 45.264C0 172.694 0 256.002 0 256.002s0 83.308 10.696 123.232c5.888 22.03 23.239 39.381 45.264 45.268 39.933 10.697 200.038 10.697 200.038 10.697s160.105 0 200.037-10.697c22.03-5.887 39.376-23.238 45.264-45.268C512 339.31 512 256.002 512 256.002s0-83.308-10.701-123.236Z" style="fill:#ed1f24;fill-rule:nonzero"/><path d="m204.796 332.803 133.018-76.801-133.018-76.801v153.602Z" style="fill:#fff;fill-rule:nonzero"/></svg>